<svg width="236" height="48" viewBox="0 0 236 48" fill="none" xmlns="http://www.w3.org/2000/svg">
<g filter="url(#filter0_b_1_2)">
<path d="M0.613636 47L8.34091 0.454544H40.7955L39.25 9.59091H18.0455L16.5 19.1364H36.0455L34.5 28.2955H14.9545L13.4091 37.8636H34.6136L33.0682 47H0.613636ZM74.5455 22.75L64.5227 23.0227C64.5379 22.2803 64.3712 21.6288 64.0227 21.0682C63.6742 20.4924 63.1818 20.0455 62.5455 19.7273C61.9091 19.4091 61.1515 19.25 60.2727 19.25C58.8485 19.25 57.5682 19.5682 56.4318 20.2045C55.3106 20.8409 54.6818 21.6667 54.5455 22.6818C54.4394 23.2273 54.5909 23.7045 55 24.1136C55.4091 24.5076 56.3182 24.8561 57.7273 25.1591L64.2727 26.4318C67.6364 27.0985 70.0758 28.2576 71.5909 29.9091C73.1212 31.5455 73.6667 33.7121 73.2273 36.4091C72.8333 38.7121 71.8182 40.7045 70.1818 42.3864C68.5606 44.0682 66.4924 45.3712 63.9773 46.2955C61.4773 47.2045 58.7121 47.6591 55.6818 47.6591C50.5606 47.6591 46.697 46.6288 44.0909 44.5682C41.5 42.4924 40.2879 39.7424 40.4545 36.3182L51.2727 36.0455C51.3182 37.3333 51.75 38.303 52.5682 38.9545C53.4015 39.5909 54.5303 39.9242 55.9545 39.9545C57.5152 39.9848 58.8636 39.6591 60 38.9773C61.1364 38.2955 61.7727 37.4545 61.9091 36.4545C62 35.803 61.7803 35.2955 61.25 34.9318C60.7348 34.5682 59.7727 34.2424 58.3636 33.9545L52.4545 32.7955C49.0606 32.1439 46.6061 30.9167 45.0909 29.1136C43.5909 27.2955 43.0758 24.9773 43.5455 22.1591C43.9394 19.9167 44.8636 18.0152 46.3182 16.4545C47.7879 14.8788 49.7045 13.6818 52.0682 12.8636C54.447 12.0455 57.1591 11.6364 60.2045 11.6364C65.0833 11.6364 68.7652 12.6288 71.25 14.6136C73.75 16.5833 74.8485 19.2955 74.5455 22.75ZM93.1307 47.6591C89.4489 47.6591 86.411 46.9015 84.017 45.3864C81.6383 43.8712 79.9716 41.7652 79.017 39.0682C78.0625 36.3561 77.8883 33.2197 78.4943 29.6591C79.0701 26.0833 80.2898 22.947 82.1534 20.25C84.017 17.5379 86.3958 15.4242 89.2898 13.9091C92.1837 12.3939 95.4564 11.6364 99.108 11.6364C102.335 11.6364 105.047 12.2197 107.244 13.3864C109.456 14.553 111.055 16.2045 112.04 18.3409C113.04 20.4621 113.335 22.9545 112.926 25.8182H102.54C102.631 24.0455 102.267 22.6515 101.449 21.6364C100.631 20.6061 99.4413 20.0909 97.8807 20.0909C96.5625 20.0909 95.3504 20.4545 94.2443 21.1818C93.1534 21.8939 92.2216 22.9545 91.4489 24.3636C90.6913 25.7576 90.1458 27.4848 89.8125 29.5455C89.4792 31.6061 89.4564 33.3485 89.7443 34.7727C90.0473 36.1818 90.6155 37.25 91.4489 37.9773C92.2973 38.6894 93.3731 39.0455 94.6761 39.0455C95.7064 39.0455 96.661 38.8258 97.5398 38.3864C98.4186 37.947 99.1837 37.303 99.8352 36.4545C100.487 35.5909 100.994 34.5455 101.358 33.3182H111.722C111.131 36.2121 109.987 38.7348 108.29 40.8864C106.608 43.0227 104.479 44.6894 101.903 45.8864C99.3277 47.0682 96.4034 47.6591 93.1307 47.6591ZM115.114 47L120.932 12.0909H131.727L130.659 18.4545H131.023C132.038 16.1515 133.364 14.4394 135 13.3182C136.636 12.1818 138.409 11.6136 140.318 11.6136C140.833 11.6136 141.348 11.6515 141.864 11.7273C142.394 11.7879 142.894 11.8788 143.364 12L141.727 21.6818C141.212 21.4848 140.538 21.3409 139.705 21.25C138.871 21.1439 138.114 21.0909 137.432 21.0909C136.114 21.0909 134.886 21.3864 133.75 21.9773C132.629 22.553 131.674 23.3636 130.886 24.4091C130.114 25.4394 129.606 26.6515 129.364 28.0455L126.227 47H115.114ZM156.511 47.6591C152.83 47.6591 149.792 46.9015 147.398 45.3864C145.019 43.8712 143.345 41.7576 142.375 39.0455C141.405 36.3333 141.216 33.1818 141.807 29.5909C142.398 26.0152 143.617 22.8788 145.466 20.1818C147.314 17.4848 149.678 15.3864 152.557 13.8864C155.436 12.3864 158.701 11.6364 162.352 11.6364C166.019 11.6364 169.042 12.3939 171.42 13.9091C173.814 15.4242 175.496 17.5379 176.466 20.25C177.451 22.9621 177.648 26.1212 177.057 29.7273C176.466 33.303 175.239 36.4394 173.375 39.1364C171.511 41.8182 169.148 43.9091 166.284 45.4091C163.42 46.9091 160.163 47.6591 156.511 47.6591ZM157.761 39.2727C159.125 39.2727 160.345 38.8636 161.42 38.0455C162.511 37.2273 163.428 36.0833 164.17 34.6136C164.913 33.1439 165.443 31.4394 165.761 29.5C166.08 27.5909 166.11 25.9167 165.852 24.4773C165.61 23.0227 165.095 21.8939 164.307 21.0909C163.519 20.2727 162.451 19.8636 161.102 19.8636C159.739 19.8636 158.511 20.2803 157.42 21.1136C156.33 21.9318 155.413 23.0758 154.67 24.5455C153.943 26 153.42 27.7045 153.102 29.6591C152.784 31.5682 152.746 33.2424 152.989 34.6818C153.231 36.1212 153.754 37.25 154.557 38.0682C155.36 38.8712 156.428 39.2727 157.761 39.2727ZM185.636 47L182.364 12.0909H193.523L194.5 34.4545H194.795L203.568 12.0909H214.455L215.909 34.2955H216.205L224.5 12.0909H235.659L220.727 47H208.841L206.75 26.6591H206.364L197.545 47H185.636Z" fill="white"/>
</g>
<defs>
<filter id="filter0_b_1_2" x="-3.38635" y="-3.54547" width="243.045" height="55.2046" filterUnits="userSpaceOnUse" color-interpolation-filters="sRGB">
<feFlood flood-opacity="0" result="BackgroundImageFix"/>
<feGaussianBlur in="BackgroundImageFix" stdDeviation="2"/>
<feComposite in2="SourceAlpha" operator="in" result="effect1_backgroundBlur_1_2"/>
<feBlend mode="normal" in="SourceGraphic" in2="effect1_backgroundBlur_1_2" result="shape"/>
</filter>
</defs>
</svg>
